<svg width="24" height="24" viewBox="0 0 24 24" fill="none" xmlns="http://www.w3.org/2000/svg">
<path d="M20 16.9997V11.4517V11.451C20 10.9171 20 10.6501 19.9351 10.4016C19.8775 10.1812 19.7827 9.97226 19.6548 9.78384C19.5104 9.57121 19.3096 9.39532 18.9074 9.04346L14.1074 4.84346C13.3608 4.19017 12.9875 3.86358 12.5674 3.73933C12.1972 3.62986 11.8028 3.62986 11.4326 3.73933C11.0127 3.86351 10.6398 4.18982 9.894 4.84239L9.89278 4.84346L5.09277 9.04346L5.09182 9.0443C4.69032 9.39561 4.48944 9.57138 4.34521 9.78384C4.2173 9.97227 4.12255 10.1812 4.06497 10.4016C4 10.6502 4 10.9174 4 11.4517V16.9997C4 17.9316 4 18.3974 4.15224 18.765C4.35523 19.255 4.74481 19.6444 5.23486 19.8474C5.60241 19.9996 6.06835 19.9996 7.00023 19.9996C7.93211 19.9996 8.39782 19.9996 8.76537 19.8474C9.25542 19.6444 9.64467 19.255 9.84766 18.765C9.9999 18.3974 10 17.9315 10 16.9996V15.9996C10 14.895 10.8954 13.9996 12 13.9996C13.1046 13.9996 14 14.895 14 15.9996V16.9996C14 17.9315 14 18.3974 14.1522 18.765C14.3552 19.255 14.7448 19.6444 15.2349 19.8474C15.6024 19.9996 16.0683 19.9996 17.0002 19.9996C17.9321 19.9996 18.3978 19.9996 18.7654 19.8474C19.2554 19.6444 19.6447 19.255 19.8477 18.765C19.9999 18.3974 20 17.9316 20 16.9997Z" stroke="white" stroke-width="2" stroke-linecap="round" stroke-linejoin="round"/>
</svg>
