<svg width="827" height="299" viewBox="0 0 827 299" fill="none" xmlns="http://www.w3.org/2000/svg">
<mask id="path-1-outside-1_49_9827" maskUnits="userSpaceOnUse" x="0" y="0" width="827" height="299" fill="black">
<rect fill="white" width="827" height="299"/>
<path d="M137.872 8.51999H208.272V291H142.272L79.3516 142.72V291H8.95156V8.51999H74.9516L137.872 159.44V8.51999ZM359.721 126.44V73.2C359.721 69.9733 358.841 67.6266 357.081 66.16C355.321 64.4 352.534 63.52 348.721 63.52H334.201V8.51999H372.041C395.508 8.51999 412.081 13.5067 421.761 23.48C431.734 33.4533 436.721 46.6533 436.721 63.08V126.44H359.721ZM359.721 226.32V120.72H436.721V236.44C436.721 252.867 431.734 266.067 421.761 276.04C412.081 286.013 395.508 291 372.041 291H334.201V236H348.721C352.534 236 355.321 235.267 357.081 233.8C358.841 232.04 359.721 229.547 359.721 226.32ZM319.241 73.2V126.44H242.241V63.08C242.241 46.6533 247.081 33.4533 256.761 23.48C266.734 13.5067 283.454 8.51999 306.921 8.51999H344.761V63.52H330.241C326.428 63.52 323.641 64.4 321.881 66.16C320.121 67.6266 319.241 69.9733 319.241 73.2ZM319.241 120.72V226.32C319.241 229.547 320.121 232.04 321.881 233.8C323.641 235.267 326.428 236 330.241 236H344.761V291H306.921C283.454 291 266.734 286.013 256.761 276.04C247.081 266.067 242.241 252.867 242.241 236.44V120.72H319.241ZM740.156 8.51999H816.276L756.436 291H667.996L636.756 122.48L605.516 291H517.076L457.236 8.51999H537.316L561.076 198.6L598.916 8.51999H674.156L711.996 198.6L740.156 8.51999Z"/>
</mask>
<path d="M137.872 8.51999V0.519991H129.872V8.51999H137.872ZM208.272 8.51999H216.272V0.519991H208.272V8.51999ZM208.272 291V299H216.272V291H208.272ZM142.272 291L134.907 294.125L136.976 299H142.272V291ZM79.3516 142.72L86.716 139.595L71.3516 142.72H79.3516ZM79.3516 291V299H87.3516V291H79.3516ZM8.95156 291H0.951564V299H8.95156V291ZM8.95156 8.51999V0.519991H0.951564V8.51999H8.95156ZM74.9516 8.51999L82.3355 5.44154L80.2837 0.519991H74.9516V8.51999ZM137.872 159.44L130.488 162.518L145.872 159.44H137.872ZM137.872 8.51999V16.52H208.272V8.51999V0.519991H137.872V8.51999ZM208.272 8.51999H200.272V291H208.272H216.272V8.51999H208.272ZM208.272 291V283H142.272V291V299H208.272V291ZM142.272 291L149.636 287.875L86.716 139.595L79.3516 142.72L71.9871 145.845L134.907 294.125L142.272 291ZM79.3516 142.72H71.3516V291H79.3516H87.3516V142.72H79.3516ZM79.3516 291V283H8.95156V291V299H79.3516V291ZM8.95156 291H16.9516V8.51999H8.95156H0.951564V291H8.95156ZM8.95156 8.51999V16.52H74.9516V8.51999V0.519991H8.95156V8.51999ZM74.9516 8.51999L67.5676 11.5984L130.488 162.518L137.872 159.44L145.256 156.362L82.3355 5.44154L74.9516 8.51999ZM137.872 159.44H145.872V8.51999H137.872H129.872V159.44H137.872ZM359.721 126.44H351.721V134.44H359.721V126.44ZM357.081 66.16L351.424 71.8168L351.681 72.0734L351.959 72.3058L357.081 66.16ZM334.201 63.52H326.201V71.52H334.201V63.52ZM334.201 8.51999V0.519991H326.201V8.51999H334.201ZM421.761 23.48L416.02 29.0518L416.062 29.0946L416.104 29.1368L421.761 23.48ZM436.721 126.44V134.44H444.721V126.44H436.721ZM359.721 120.72V112.72H351.721V120.72H359.721ZM436.721 120.72H444.721V112.72H436.721V120.72ZM421.761 276.04L416.104 270.383L416.062 270.425L416.02 270.468L421.761 276.04ZM334.201 291H326.201V299H334.201V291ZM334.201 236V228H326.201V236H334.201ZM357.081 233.8L362.202 239.946L362.481 239.713L362.738 239.457L357.081 233.8ZM319.241 126.44V134.44H327.241V126.44H319.241ZM242.241 126.44H234.241V134.44H242.241V126.44ZM256.761 23.48L251.104 17.8231L251.062 17.8653L251.02 17.9082L256.761 23.48ZM344.761 8.51999H352.761V0.519991H344.761V8.51999ZM344.761 63.52V71.52H352.761V63.52H344.761ZM321.881 66.16L327.002 72.3058L327.281 72.0734L327.538 71.8168L321.881 66.16ZM319.241 120.72H327.241V112.72H319.241V120.72ZM321.881 233.8L316.224 239.457L316.481 239.713L316.759 239.946L321.881 233.8ZM344.761 236H352.761V228H344.761V236ZM344.761 291V299H352.761V291H344.761ZM256.761 276.04L251.02 281.612L251.062 281.655L251.104 281.697L256.761 276.04ZM242.241 120.72V112.72H234.241V120.72H242.241ZM359.721 126.44H367.721V73.2H359.721H351.721V126.44H359.721ZM359.721 73.2H367.721C367.721 68.6106 366.442 63.5473 362.202 60.0142L357.081 66.16L351.959 72.3058C351.838 72.2042 351.735 72.0887 351.658 71.9787C351.584 71.8719 351.563 71.8099 351.57 71.829C351.592 71.8874 351.721 72.2835 351.721 73.2H359.721ZM357.081 66.16L362.738 60.5031C358.844 56.6092 353.55 55.52 348.721 55.52V63.52V71.52C350.045 71.52 350.844 71.6766 351.262 71.8087C351.643 71.929 351.599 71.9913 351.424 71.8168L357.081 66.16ZM348.721 63.52V55.52H334.201V63.52V71.52H348.721V63.52ZM334.201 63.52H342.201V8.51999H334.201H326.201V63.52H334.201ZM334.201 8.51999V16.52H372.041V8.51999V0.519991H334.201V8.51999ZM372.041 8.51999V16.52C394.751 16.52 408.605 21.4114 416.02 29.0518L421.761 23.48L427.502 17.9082C415.557 5.60194 396.264 0.519991 372.041 0.519991V8.51999ZM421.761 23.48L416.104 29.1368C424.33 37.3626 428.721 48.3977 428.721 63.08H436.721H444.721C444.721 44.909 439.139 29.5441 427.418 17.8231L421.761 23.48ZM436.721 63.08H428.721V126.44H436.721H444.721V63.08H436.721ZM436.721 126.44V118.44H359.721V126.44V134.44H436.721V126.44ZM359.721 226.32H367.721V120.72H359.721H351.721V226.32H359.721ZM359.721 120.72V128.72H436.721V120.72V112.72H359.721V120.72ZM436.721 120.72H428.721V236.44H436.721H444.721V120.72H436.721ZM436.721 236.44H428.721C428.721 251.122 424.33 262.157 416.104 270.383L421.761 276.04L427.418 281.697C439.139 269.976 444.721 254.611 444.721 236.44H436.721ZM421.761 276.04L416.02 270.468C408.605 278.109 394.751 283 372.041 283V291V299C396.264 299 415.557 293.918 427.502 281.612L421.761 276.04ZM372.041 291V283H334.201V291V299H372.041V291ZM334.201 291H342.201V236H334.201H326.201V291H334.201ZM334.201 236V244H348.721V236V228H334.201V236ZM348.721 236V244C353.259 244 358.319 243.182 362.202 239.946L357.081 233.8L351.959 227.654C352.18 227.471 352.179 227.57 351.635 227.713C351.08 227.859 350.148 228 348.721 228V236ZM357.081 233.8L362.738 239.457C366.406 235.789 367.721 231.012 367.721 226.32H359.721H351.721C351.721 227.219 351.597 227.721 351.517 227.947C351.478 228.057 351.448 228.109 351.439 228.124C351.431 228.137 351.428 228.14 351.424 228.143L357.081 233.8ZM319.241 73.2H311.241V126.44H319.241H327.241V73.2H319.241ZM319.241 126.44V118.44H242.241V126.44V134.44H319.241V126.44ZM242.241 126.44H250.241V63.08H242.241H234.241V126.44H242.241ZM242.241 63.08H250.241C250.241 48.3286 254.53 37.2649 262.502 29.0518L256.761 23.48L251.02 17.9082C239.632 29.6418 234.241 44.978 234.241 63.08H242.241ZM256.761 23.48L262.418 29.1368C270.157 21.3978 284.243 16.52 306.921 16.52V8.51999V0.519991C282.665 0.519991 263.312 5.61547 251.104 17.8231L256.761 23.48ZM306.921 8.51999V16.52H344.761V8.51999V0.519991H306.921V8.51999ZM344.761 8.51999H336.761V63.52H344.761H352.761V8.51999H344.761ZM344.761 63.52V55.52H330.241V63.52V71.52H344.761V63.52ZM330.241 63.52V55.52C325.412 55.52 320.118 56.6092 316.224 60.5031L321.881 66.16L327.538 71.8168C327.363 71.9913 327.319 71.929 327.7 71.8087C328.118 71.6766 328.917 71.52 330.241 71.52V63.52ZM321.881 66.16L316.759 60.0142C312.52 63.5473 311.241 68.6106 311.241 73.2H319.241H327.241C327.241 72.2835 327.37 71.8874 327.392 71.829C327.399 71.8099 327.377 71.8719 327.303 71.9787C327.227 72.0887 327.124 72.2042 327.002 72.3058L321.881 66.16ZM319.241 120.72H311.241V226.32H319.241H327.241V120.72H319.241ZM319.241 226.32H311.241C311.241 231.012 312.556 235.789 316.224 239.457L321.881 233.8L327.538 228.143C327.534 228.14 327.531 228.137 327.523 228.124C327.514 228.109 327.484 228.057 327.445 227.947C327.365 227.721 327.241 227.219 327.241 226.32H319.241ZM321.881 233.8L316.759 239.946C320.643 243.182 325.703 244 330.241 244V236V228C328.814 228 327.881 227.859 327.327 227.713C326.783 227.57 326.782 227.471 327.002 227.654L321.881 233.8ZM330.241 236V244H344.761V236V228H330.241V236ZM344.761 236H336.761V291H344.761H352.761V236H344.761ZM344.761 291V283H306.921V291V299H344.761V291ZM306.921 291V283C284.243 283 270.157 278.122 262.418 270.383L256.761 276.04L251.104 281.697C263.312 293.905 282.665 299 306.921 299V291ZM256.761 276.04L262.502 270.468C254.53 262.255 250.241 251.191 250.241 236.44H242.241H234.241C234.241 254.542 239.632 269.878 251.02 281.612L256.761 276.04ZM242.241 236.44H250.241V120.72H242.241H234.241V236.44H242.241ZM242.241 120.72V128.72H319.241V120.72V112.72H242.241V120.72ZM740.156 8.51999V0.519991H733.254L732.242 7.3476L740.156 8.51999ZM816.276 8.51999L824.102 10.1779L826.148 0.519991H816.276V8.51999ZM756.436 291V299H762.919L764.262 292.658L756.436 291ZM667.996 291L660.13 292.458L661.343 299H667.996V291ZM636.756 122.48L644.622 121.022H628.89L636.756 122.48ZM605.516 291V299H612.169L613.382 292.458L605.516 291ZM517.076 291L509.25 292.658L510.593 299H517.076V291ZM457.236 8.51999V0.519991H447.364L449.41 10.1779L457.236 8.51999ZM537.316 8.51999L545.254 7.52771L544.378 0.519991H537.316V8.51999ZM561.076 198.6L553.138 199.592L568.922 200.162L561.076 198.6ZM598.916 8.51999V0.519991H592.352L591.07 6.95805L598.916 8.51999ZM674.156 8.51999L682.002 6.95805L680.72 0.519991H674.156V8.51999ZM711.996 198.6L704.15 200.162L719.91 199.772L711.996 198.6ZM740.156 8.51999V16.52H816.276V8.51999V0.519991H740.156V8.51999ZM816.276 8.51999L808.45 6.86208L748.61 289.342L756.436 291L764.262 292.658L824.102 10.1779L816.276 8.51999ZM756.436 291V283H667.996V291V299H756.436V291ZM667.996 291L675.862 289.542L644.622 121.022L636.756 122.48L628.89 123.938L660.13 292.458L667.996 291ZM636.756 122.48L628.89 121.022L597.65 289.542L605.516 291L613.382 292.458L644.622 123.938L636.756 122.48ZM605.516 291V283H517.076V291V299H605.516V291ZM517.076 291L524.902 289.342L465.062 6.86208L457.236 8.51999L449.41 10.1779L509.25 292.658L517.076 291ZM457.236 8.51999V16.52H537.316V8.51999V0.519991H457.236V8.51999ZM537.316 8.51999L529.378 9.51227L553.138 199.592L561.076 198.6L569.014 197.608L545.254 7.52771L537.316 8.51999ZM561.076 198.6L568.922 200.162L606.762 10.0819L598.916 8.51999L591.07 6.95805L553.23 197.038L561.076 198.6ZM598.916 8.51999V16.52H674.156V8.51999V0.519991H598.916V8.51999ZM674.156 8.51999L666.31 10.0819L704.15 200.162L711.996 198.6L719.842 197.038L682.002 6.95805L674.156 8.51999ZM711.996 198.6L719.91 199.772L748.07 9.69238L740.156 8.51999L732.242 7.3476L704.082 197.428L711.996 198.6Z" fill="#FFA033" mask="url(#path-1-outside-1_49_9827)"/>
</svg>
